<svg xmlns="http://www.w3.org/2000/svg" xmlns:xlink="http://www.w3.org/1999/xlink" x="0px" y="0px"
	 viewBox="0 0 437.63 115.8" style="enable-background:new 0 0 437.63 115.8;" xml:space="preserve">
<g>
	<path d="M0,7.23h16.45v15.33h22.69V7.23h16.33v56.22H0V7.23z M10.47,74.41H87.5v41.13H70.92V87.5H10.47V74.41z M16.45,35.27v15.21
		h22.69V35.27H16.45z M70.92,0.12H87.5V69.3H70.92V0.12z M83.01,28.05h19.82v13.59H83.01V28.05z"/>
	<path d="M137.36,8.1c5.07,0,9.49,1.68,13.27,5.05c3.78,3.37,6.69,8.19,8.73,14.46c2.04,6.27,3.05,13.73,3.05,22.37
		c0,8.73-1.02,16.25-3.05,22.56c-2.04,6.32-4.94,11.16-8.73,14.52c-3.78,3.37-8.25,5.05-13.4,5.05c-4.99,0-9.37-1.68-13.15-5.05
		c-3.78-3.37-6.69-8.21-8.73-14.52c-2.04-6.31-3.05-13.84-3.05-22.56c0-8.64,1.02-16.1,3.05-22.37c2.04-6.27,4.94-11.09,8.73-14.46
		C127.87,9.78,132.29,8.1,137.36,8.1z M137.36,23.81c-2.08,0-3.86,0.96-5.36,2.87c-1.5,1.91-2.64,4.8-3.43,8.66
		c-0.79,3.86-1.18,8.75-1.18,14.65c0,5.9,0.39,10.8,1.18,14.71c0.79,3.91,1.93,6.84,3.43,8.79c1.5,1.95,3.28,2.93,5.36,2.93
		c2.08,0,3.88-0.98,5.42-2.93c1.54-1.95,2.68-4.88,3.43-8.79c0.75-3.91,1.12-8.81,1.12-14.71c0-5.9-0.37-10.78-1.12-14.65
		c-0.75-3.86-1.89-6.75-3.43-8.66C141.24,24.76,139.44,23.81,137.36,23.81z M157.55,42.5h18.95v13.34h-18.95V42.5z M171.26,1.87
		h15.46v108.44h-15.46V1.87z M194.7,0h15.83v115.42H194.7V0z"/>
	<path d="M226.11,87.88h104.58v13.59H226.11V87.88z M268.98,6.73h14.33v8.35c0,4.99-0.69,9.83-2.06,14.52
		c-1.37,4.7-3.39,9.12-6.05,13.27c-2.66,4.16-5.92,7.91-9.78,11.28c-3.86,3.37-8.29,6.25-13.28,8.66
		c-4.99,2.41-10.47,4.2-16.45,5.36l-7.1-13.84c5.15-0.91,9.87-2.31,14.15-4.18c4.28-1.87,8.04-4.13,11.28-6.79
		c3.24-2.66,5.98-5.55,8.23-8.66c2.24-3.12,3.93-6.36,5.05-9.72c1.12-3.37,1.68-6.67,1.68-9.91V6.73z M272.23,6.73h14.46v8.35
		c0,3.32,0.56,6.69,1.68,10.1c1.12,3.41,2.78,6.67,4.99,9.78c2.2,3.12,4.92,5.96,8.17,8.54c3.24,2.58,6.98,4.8,11.22,6.67
		s9.02,3.26,14.33,4.18l-7.1,13.84c-5.98-1.16-11.47-2.95-16.45-5.36c-4.99-2.41-9.41-5.28-13.28-8.6
		c-3.86-3.32-7.15-7.06-9.85-11.22c-2.7-4.15-4.74-8.6-6.11-13.34c-1.37-4.74-2.06-9.6-2.06-14.58V6.73z"/>
	<path d="M346.27,10.22h52.23v13.21h-35.65v56.09h-16.58V10.22z M346.27,74.29h9.35c6.81,0,12.94-0.08,18.38-0.25
		c5.44-0.17,10.61-0.48,15.52-0.93c4.9-0.46,9.85-1.14,14.83-2.06l1.62,13.46c-5.23,0.92-10.37,1.62-15.39,2.12
		c-5.03,0.5-10.35,0.83-15.95,1c-5.61,0.17-11.95,0.25-19.01,0.25h-9.35V74.29z M392.88,39.89h35.28v13.46h-35.28V39.89z M421.05,0
		h16.58v115.8h-16.58V0z"/>
</g>
<g>
	<path d="M14.26,132.95c2.69,0,5.11,0.57,7.27,1.7c2.16,1.14,3.87,2.71,5.14,4.72c1.27,2.01,1.9,4.32,1.9,6.93
		c0,2.58-0.63,4.88-1.9,6.9c-1.27,2.03-2.98,3.62-5.14,4.77c-2.16,1.16-4.58,1.73-7.27,1.73c-2.69,0-5.11-0.58-7.27-1.73
		c-2.16-1.16-3.86-2.75-5.11-4.77S0,148.88,0,146.31c0-2.61,0.62-4.92,1.88-6.93c1.25-2.01,2.95-3.58,5.11-4.72
		C9.15,133.52,11.57,132.95,14.26,132.95z M7.1,163.86h7.61v14.09H7.1V163.86z M7.1,175.23H42.9v6.08H7.1V175.23z M14.26,139.49
		c-1.29,0-2.45,0.28-3.49,0.82c-1.04,0.55-1.87,1.33-2.47,2.33c-0.61,1-0.91,2.23-0.91,3.67c0,1.44,0.3,2.66,0.91,3.67
		c0.61,1,1.43,1.78,2.47,2.33c1.04,0.55,2.21,0.82,3.49,0.82c1.33,0,2.51-0.27,3.55-0.82c1.04-0.55,1.87-1.33,2.47-2.33
		c0.61-1,0.91-2.22,0.91-3.67c0-1.44-0.3-2.66-0.91-3.67c-0.61-1-1.43-1.78-2.47-2.33C16.77,139.76,15.59,139.49,14.26,139.49z
		 M33.46,129.6h7.56v38.24h-7.56V129.6z M38.92,144.6h9.09v6.25h-9.09V144.6z"/>
	<path d="M54.94,132.21h7.56v22.16h-7.56V132.21z M54.94,152.84h4.32c3.03,0,5.8-0.04,8.3-0.11c2.5-0.08,4.9-0.24,7.19-0.48
		c2.29-0.25,4.59-0.58,6.9-0.99l0.91,5.97c-2.42,0.49-4.83,0.86-7.22,1.11c-2.39,0.25-4.88,0.42-7.47,0.51
		c-2.59,0.09-5.46,0.14-8.61,0.14h-4.32V152.84z M78.12,161.82c5.57,0,9.96,0.9,13.18,2.7c3.22,1.8,4.83,4.29,4.83,7.47
		c0,3.26-1.61,5.79-4.83,7.58c-3.22,1.8-7.61,2.7-13.18,2.7s-9.96-0.9-13.18-2.7c-3.22-1.8-4.83-4.33-4.83-7.58
		c0-3.18,1.61-5.67,4.83-7.47C68.16,162.72,72.56,161.82,78.12,161.82z M78.12,167.67c-2.27,0-4.19,0.15-5.74,0.45
		c-1.55,0.3-2.74,0.79-3.55,1.45c-0.81,0.66-1.22,1.47-1.22,2.42c0,0.99,0.41,1.81,1.22,2.47c0.81,0.66,2,1.16,3.55,1.48
		c1.55,0.32,3.47,0.48,5.74,0.48c2.27,0,4.19-0.16,5.74-0.48c1.55-0.32,2.73-0.81,3.52-1.48c0.8-0.66,1.19-1.49,1.19-2.47
		c0-0.95-0.4-1.75-1.19-2.42c-0.8-0.66-1.97-1.15-3.52-1.45C82.31,167.82,80.4,167.67,78.12,167.67z M75.85,134.26h14.37V140H75.85
		V134.26z M75.85,143.29h14.37v5.74H75.85V143.29z M88.35,129.54h7.61v31.59h-7.61V129.54z"/>
	<path d="M103.92,137.33h30.68v6.02h-30.68V137.33z M119.37,146.36c2.54,0,4.81,0.54,6.82,1.62c2.01,1.08,3.59,2.55,4.74,4.4
		c1.15,1.86,1.73,4.02,1.73,6.48c0,2.46-0.58,4.63-1.73,6.51c-1.16,1.88-2.73,3.35-4.72,4.43c-1.99,1.08-4.27,1.62-6.85,1.62
		c-2.54,0-4.82-0.54-6.85-1.62c-2.03-1.08-3.62-2.56-4.77-4.43c-1.16-1.88-1.73-4.04-1.73-6.51c0-2.46,0.58-4.62,1.73-6.48
		c1.16-1.86,2.75-3.32,4.77-4.4C114.55,146.9,116.83,146.36,119.37,146.36z M119.37,152.5c-1.21,0-2.27,0.25-3.18,0.74
		c-0.91,0.49-1.63,1.21-2.16,2.16c-0.53,0.95-0.8,2.08-0.8,3.41c0,1.36,0.26,2.53,0.8,3.49c0.53,0.97,1.25,1.7,2.16,2.22
		c0.91,0.51,1.97,0.77,3.18,0.77c1.17,0,2.22-0.26,3.12-0.77c0.91-0.51,1.63-1.25,2.16-2.22c0.53-0.97,0.8-2.13,0.8-3.49
		c0-1.33-0.27-2.46-0.8-3.41c-0.53-0.95-1.25-1.67-2.16-2.16C121.59,152.74,120.55,152.5,119.37,152.5z M115.51,130.45h7.61v9.2
		h-7.61V130.45z M137.89,129.6h7.56v52.61h-7.56V129.6z M143.75,150.11h9.26v6.25h-9.26V150.11z"/>
	<path d="M165.96,134.15h5.74v8.81c0,2.99-0.21,5.93-0.62,8.81c-0.42,2.88-1.09,5.59-2.02,8.12c-0.93,2.54-2.14,4.82-3.64,6.85
		c-1.5,2.03-3.3,3.68-5.43,4.97l-4.55-5.68c1.97-1.17,3.62-2.61,4.94-4.32c1.33-1.7,2.4-3.58,3.24-5.62
		c0.83-2.04,1.43-4.18,1.79-6.39s0.54-4.46,0.54-6.73V134.15z M167.61,134.15h5.62v8.47c0,2.16,0.16,4.3,0.48,6.42
		s0.84,4.15,1.56,6.08s1.68,3.71,2.87,5.34c1.19,1.63,2.7,3.03,4.52,4.2l-4.15,5.91c-2.04-1.29-3.78-2.93-5.2-4.92
		c-1.42-1.99-2.55-4.23-3.38-6.73c-0.83-2.5-1.43-5.13-1.79-7.9c-0.36-2.76-0.54-5.57-0.54-8.41V134.15z M177.15,147.27h8.75v6.14
		h-8.75V147.27z M183.75,130.4h7.04v49.43h-7.04V130.4z M194.43,129.54h7.21v52.61h-7.21V129.54z"/>
	<path d="M223.29,132.33c2.61,0,4.96,0.55,7.04,1.65c2.08,1.1,3.74,2.61,4.97,4.54c1.23,1.93,1.85,4.15,1.85,6.65
		c0,2.46-0.62,4.65-1.85,6.56c-1.23,1.91-2.89,3.43-4.97,4.55c-2.08,1.12-4.43,1.68-7.04,1.68c-2.61,0-4.97-0.56-7.07-1.68
		s-3.77-2.63-5-4.55c-1.23-1.91-1.85-4.1-1.85-6.56c0-2.5,0.62-4.72,1.85-6.65c1.23-1.93,2.9-3.45,5-4.54
		S220.68,132.33,223.29,132.33z M223.29,138.69c-1.29,0-2.44,0.26-3.47,0.77c-1.02,0.51-1.83,1.25-2.42,2.22
		c-0.59,0.97-0.88,2.13-0.88,3.49c0,1.33,0.29,2.47,0.88,3.44c0.59,0.97,1.38,1.71,2.39,2.24c1,0.53,2.15,0.8,3.44,0.8
		c1.33,0,2.49-0.26,3.49-0.8c1-0.53,1.79-1.28,2.36-2.24s0.85-2.11,0.85-3.44c0-1.36-0.28-2.53-0.85-3.49s-1.35-1.7-2.36-2.22
		C225.72,138.95,224.58,138.69,223.29,138.69z M217.66,161.7h35.11v19.94h-35.11V161.7z M245.33,167.67h-20.23v8.01h20.23V167.67z
		 M231.98,136.31h15.57v6.02h-15.57V136.31z M231.98,148.01h15.57v6.02h-15.57V148.01z M245.16,129.6h7.61v29.83h-7.61V129.6z"/>
</g>
</svg>
